<svg width="61" height="61" viewBox="0 0 61 61" fill="none" xmlns="http://www.w3.org/2000/svg">
<rect width="60.3637" height="60.3636" rx="16" fill="#001E36" fill-opacity="0.2"/>
<path d="M21.0775 16.0225C28.9686 16.0225 33.4114 19.7166 33.4114 25.9082C33.4114 33.1326 27.3893 36.0398 21.7442 36.0398H17.9243V43.849H10.1971V16.0225H21.0775ZM17.9243 22.6239V29.433H21.3288C23.6951 29.433 25.3564 28.4766 25.3564 26.0667C25.3564 23.8644 23.9465 22.6184 21.4928 22.6184H17.9188L17.9243 22.6239Z" fill="#30A8FF"/>
<path d="M34.9854 42.4776L35.0291 36.0402C37.2314 37.4938 40.3026 38.4064 42.4229 38.4064C43.8765 38.4064 44.5432 37.9911 44.5432 37.2424C44.5432 36.4118 43.6306 36.0784 41.8874 35.5374C38.5211 34.5428 34.8269 33.1712 34.8269 28.7666C34.8269 24.362 38.5211 21.7881 43.882 21.7881C46.4176 21.7881 48.4943 22.1597 50.3195 22.9521L50.2758 29.0999C48.8221 28.2256 45.9586 27.4386 44.0897 27.4386C42.718 27.4386 42.177 27.854 42.177 28.4769C42.177 29.2256 42.8437 29.4333 44.8329 30.0563C48.6964 31.2202 51.937 32.4662 51.937 36.991C51.937 41.5158 48.4068 44.2154 42.8819 44.2154C39.9747 44.2154 37.2314 43.7181 34.9908 42.4722L34.9854 42.4776Z" fill="#30A8FF"/>
</svg>
